<?xml version="1.0" standalone="no"?>
<!DOCTYPE svg PUBLIC "-//W3C//DTD SVG 20010904//EN"
 "http://www.w3.org/TR/2001/REC-SVG-20010904/DTD/svg10.dtd">
<svg version="1.0" xmlns="http://www.w3.org/2000/svg"
 width="129.000000pt" height="44.000000pt" viewBox="0 0 129.000000 44.000000"
 preserveAspectRatio="xMidYMid meet">

<g transform="translate(0.000000,44.000000) scale(0.100000,-0.100000)"
fill="#000000" stroke="none">
<path d="M520 360 c0 -47 -2 -50 -25 -50 -20 0 -25 -5 -25 -25 0 -20 5 -25 25
-25 l25 0 0 -103 c0 -115 10 -141 60 -152 17 -4 48 -4 69 0 33 5 37 9 34 29
-4 18 -10 21 -39 18 -56 -7 -64 8 -64 114 l0 94 45 0 c41 0 45 2 45 25 0 23
-4 25 -45 25 l-45 0 0 50 c0 49 -1 50 -30 50 -29 0 -30 -1 -30 -50z"/>
<path d="M740 205 l0 -205 125 0 125 0 0 25 c0 25 -1 25 -90 25 l-90 0 0 70 0
70 80 0 c79 0 80 0 80 25 0 25 -1 25 -80 25 l-80 0 0 60 0 60 90 0 c89 0 90 0
90 25 l0 25 -125 0 -125 0 0 -205z"/>
<path d="M30 155 l0 -155 30 0 30 0 0 155 0 155 -30 0 -30 0 0 -155z"/>
<path d="M160 155 l0 -155 35 0 35 0 0 113 0 114 33 17 c42 23 78 18 94 -14 8
-15 13 -65 13 -127 l0 -103 31 0 31 0 -4 130 c-3 115 -5 132 -24 150 -31 31
-83 36 -137 12 -44 -20 -45 -20 -50 -1 -3 13 -14 19 -31 19 l-26 0 0 -155z"/>
<path d="M1022 302 c9 -23 84 -132 91 -132 4 0 12 11 18 24 9 20 7 31 -16 70
-24 41 -31 46 -62 46 -19 0 -33 -4 -31 -8z"/>
<path d="M1062 79 l-52 -74 26 -3 c38 -5 50 2 79 52 24 41 25 47 12 72 l-14
26 -51 -73z"/>
</g>
</svg>
